<svg width="143" height="34" viewBox="0 0 143 34" fill="none" xmlns="http://www.w3.org/2000/svg">
<path d="M50.968 7.816H61.864V10.888H54.208V15.064H61.096V18.136H54.208V25H50.968V7.816ZM69.4233 25.384C68.1593 25.384 67.0313 25.104 66.0393 24.544C65.0473 23.968 64.2713 23.192 63.7113 22.216C63.1673 21.224 62.8953 20.112 62.8953 18.88C62.8953 17.664 63.1673 16.56 63.7113 15.568C64.2713 14.576 65.0473 13.8 66.0393 13.24C67.0313 12.664 68.1593 12.376 69.4233 12.376C70.6713 12.376 71.7913 12.664 72.7833 13.24C73.7753 13.8 74.5433 14.576 75.0873 15.568C75.6473 16.56 75.9273 17.664 75.9273 18.88C75.9273 20.112 75.6473 21.224 75.0873 22.216C74.5433 23.192 73.7753 23.968 72.7833 24.544C71.7913 25.104 70.6713 25.384 69.4233 25.384ZM69.4233 22.48C70.0313 22.48 70.5913 22.336 71.1033 22.048C71.6153 21.76 72.0233 21.344 72.3273 20.8C72.6313 20.256 72.7833 19.616 72.7833 18.88C72.7833 18.16 72.6313 17.528 72.3273 16.984C72.0233 16.44 71.6153 16.024 71.1033 15.736C70.5913 15.448 70.0313 15.304 69.4233 15.304C68.8153 15.304 68.2553 15.448 67.7433 15.736C67.2313 16.024 66.8153 16.44 66.4953 16.984C66.1913 17.528 66.0393 18.16 66.0393 18.88C66.0393 19.6 66.1913 20.24 66.4953 20.8C66.8153 21.344 67.2313 21.76 67.7433 22.048C68.2553 22.336 68.8153 22.48 69.4233 22.48ZM84.1889 25.384C82.9249 25.384 81.7969 25.104 80.8049 24.544C79.8129 23.968 79.0369 23.192 78.4769 22.216C77.9329 21.224 77.6609 20.112 77.6609 18.88C77.6609 17.664 77.9329 16.56 78.4769 15.568C79.0369 14.576 79.8129 13.8 80.8049 13.24C81.7969 12.664 82.9249 12.376 84.1889 12.376C85.4369 12.376 86.5569 12.664 87.5489 13.24C88.5409 13.8 89.3089 14.576 89.8529 15.568C90.4129 16.56 90.6929 17.664 90.6929 18.88C90.6929 20.112 90.4129 21.224 89.8529 22.216C89.3089 23.192 88.5409 23.968 87.5489 24.544C86.5569 25.104 85.4369 25.384 84.1889 25.384ZM84.1889 22.48C84.7969 22.48 85.3569 22.336 85.8689 22.048C86.3809 21.76 86.7889 21.344 87.0929 20.8C87.3969 20.256 87.5489 19.616 87.5489 18.88C87.5489 18.16 87.3969 17.528 87.0929 16.984C86.7889 16.44 86.3809 16.024 85.8689 15.736C85.3569 15.448 84.7969 15.304 84.1889 15.304C83.5809 15.304 83.0209 15.448 82.5089 15.736C81.9969 16.024 81.5809 16.44 81.2609 16.984C80.9569 17.528 80.8049 18.16 80.8049 18.88C80.8049 19.6 80.9569 20.24 81.2609 20.8C81.5809 21.344 81.9969 21.76 82.5089 22.048C83.0209 22.336 83.5809 22.48 84.1889 22.48ZM98.3545 25.384C97.2505 25.384 96.2425 25.112 95.3305 24.568C94.4345 24.008 93.7225 23.24 93.1945 22.264C92.6825 21.272 92.4265 20.144 92.4265 18.88C92.4265 17.632 92.6825 16.512 93.1945 15.52C93.7225 14.528 94.4345 13.76 95.3305 13.216C96.2425 12.656 97.2505 12.376 98.3545 12.376C99.1865 12.376 99.9225 12.56 100.563 12.928C101.203 13.28 101.691 13.72 102.027 14.248H102.219L102.027 12.52V7.816H105.147V25H102.219V23.536H102.027C101.707 24.064 101.219 24.504 100.563 24.856C99.9225 25.208 99.1865 25.384 98.3545 25.384ZM98.8825 22.48C99.4745 22.48 100.027 22.328 100.539 22.024C101.051 21.72 101.459 21.296 101.763 20.752C102.067 20.208 102.219 19.584 102.219 18.88C102.219 18.176 102.067 17.552 101.763 17.008C101.459 16.464 101.051 16.048 100.539 15.76C100.027 15.456 99.4745 15.304 98.8825 15.304C98.3065 15.304 97.7625 15.456 97.2505 15.76C96.7385 16.048 96.3305 16.464 96.0265 17.008C95.7225 17.552 95.5705 18.176 95.5705 18.88C95.5705 19.584 95.7225 20.208 96.0265 20.752C96.3305 21.296 96.7385 21.72 97.2505 22.024C97.7625 22.328 98.3065 22.48 98.8825 22.48ZM114.296 7.816H125.192V10.888H117.536V15.064H124.424V18.136H117.536V25H114.296V7.816ZM129.164 11.416C128.604 11.416 128.124 11.216 127.724 10.816C127.324 10.416 127.124 9.936 127.124 9.376C127.124 8.816 127.324 8.344 127.724 7.96C128.124 7.56 128.604 7.36 129.164 7.36C129.724 7.36 130.196 7.56 130.58 7.96C130.98 8.344 131.18 8.816 131.18 9.376C131.18 9.936 130.98 10.416 130.58 10.816C130.196 11.216 129.724 11.416 129.164 11.416ZM127.58 12.76H130.724V25H127.58V12.76ZM139.231 25.192C138.623 25.192 138.063 25.104 137.551 24.928C137.039 24.736 136.623 24.48 136.303 24.16C135.551 23.44 135.175 22.416 135.175 21.088V15.448H133.039V12.76H135.175V9.304H138.319V12.76H141.319V15.448H138.319V20.512C138.319 21.136 138.455 21.584 138.727 21.856C138.951 22.112 139.335 22.24 139.879 22.24C140.183 22.24 140.431 22.2 140.623 22.12C140.831 22.04 141.095 21.904 141.415 21.712V24.784C140.727 25.056 139.999 25.192 139.231 25.192Z" fill="#141516"/>
<path d="M7.08331 20.6607H8.14581C8.14571 20.454 8.08534 20.2519 7.97212 20.079C7.85889 19.9062 7.69771 19.7701 7.50831 19.6874L7.08331 20.6607ZM26.9166 20.6607L26.4916 19.6874C26.3023 19.7701 26.1411 19.9062 26.0278 20.079C25.9146 20.2519 25.8543 20.454 25.8541 20.6607H26.9166ZM22.3125 9.91668C22.3125 10.1985 22.4244 10.4687 22.6237 10.668C22.8229 10.8672 23.0932 10.9792 23.375 10.9792C23.6568 10.9792 23.927 10.8672 24.1263 10.668C24.3255 10.4687 24.4375 10.1985 24.4375 9.91668H22.3125ZM9.56248 9.91668C9.56248 10.1985 9.67442 10.4687 9.87368 10.668C10.0729 10.8672 10.3432 10.9792 10.625 10.9792C10.9068 10.9792 11.177 10.8672 11.3763 10.668C11.5755 10.4687 11.6875 10.1985 11.6875 9.91668H9.56248ZM9.91665 6.02084C7.75624 6.02084 5.68431 6.87906 4.15667 8.4067C2.62903 9.93434 1.77081 12.0063 1.77081 14.1667H3.89581C3.89581 12.5699 4.53015 11.0384 5.65927 9.9093C6.7884 8.78018 8.31982 8.14584 9.91665 8.14584V6.02084ZM24.0833 8.14584C25.6801 8.14584 27.2116 8.78018 28.3407 9.9093C29.4698 11.0384 30.1041 12.5699 30.1041 14.1667H32.2291C32.2291 12.0063 31.3709 9.93434 29.8433 8.4067C28.3156 6.87906 26.2437 6.02084 24.0833 6.02084V8.14584ZM21.25 30.1042H12.75V32.2292H21.25V30.1042ZM12.75 30.1042C11.3843 30.1042 10.4663 30.1013 9.78206 30.0093C9.12898 29.9214 8.84848 29.7698 8.66431 29.5843L7.16265 31.0888C7.80723 31.7333 8.61048 31.9954 9.50015 32.1158C10.3586 32.232 11.4438 32.2292 12.75 32.2292V30.1042ZM6.02081 25.5C6.02081 26.8062 6.01798 27.8913 6.13415 28.7498C6.25315 29.6395 6.51665 30.4428 7.16123 31.0873L8.66431 29.5857C8.48015 29.4015 8.32856 29.121 8.23931 28.4665C8.14865 27.7837 8.14581 26.8657 8.14581 25.5H6.02081ZM25.8541 25.5C25.8541 26.8657 25.8513 27.7837 25.7592 28.4679C25.6714 29.121 25.5198 29.4015 25.3342 29.5857L26.8387 31.0873C27.4833 30.4428 27.7454 29.6395 27.8658 28.7498C27.982 27.8913 27.9791 26.8062 27.9791 25.5H25.8541ZM21.25 32.2292C22.5561 32.2292 23.6413 32.232 24.4998 32.1158C25.3895 31.9968 26.1941 31.7333 26.8387 31.0873L25.3356 29.5857C25.1515 29.7698 24.871 29.9214 24.2165 30.0107C23.5336 30.1013 22.6156 30.1042 21.25 30.1042V32.2292ZM9.91665 8.14584C10.2189 8.14584 10.5154 8.16757 10.8063 8.21101L11.1166 6.10868C10.7192 6.05109 10.3182 6.02174 9.91665 6.02084V8.14584ZM17 1.77084C15.4455 1.77042 13.9299 2.25709 12.6663 3.16245C11.4026 4.06781 10.4544 5.34636 9.9549 6.81843L11.9666 7.50126C12.3234 6.44959 13.0009 5.5362 13.9037 4.88949C14.8066 4.24279 15.8894 3.89529 17 3.89584V1.77084ZM9.9549 6.81843C9.69562 7.58858 9.56309 8.39572 9.56248 9.20834H11.6875C11.6875 8.60909 11.7866 8.03534 11.968 7.50126L9.9549 6.81843ZM24.0833 6.02084C23.6763 6.02084 23.2763 6.05012 22.8834 6.10868L23.1951 8.21101C23.489 8.16602 23.786 8.14423 24.0833 8.14584V6.02084ZM17 3.89584C18.1103 3.89558 19.1928 4.24322 20.0954 4.88991C20.9979 5.53659 21.6752 6.44982 22.032 7.50126L24.0436 6.81843C23.5442 5.34659 22.5962 4.06821 21.3329 3.16286C20.0695 2.25752 18.5542 1.77072 17 1.77084V3.89584ZM22.032 7.50126C22.2133 8.03534 22.3125 8.60909 22.3125 9.20834H24.4375C24.4375 8.37393 24.2986 7.57068 24.0436 6.81843L22.032 7.50126ZM8.14581 25.5V20.6607H6.02081V25.5H8.14581ZM7.50831 19.6874C6.4342 19.2186 5.52025 18.4466 4.87855 17.4659C4.23686 16.4853 3.89531 15.3386 3.89581 14.1667H1.77081C1.77053 15.7519 2.2328 17.3028 3.10095 18.6292C3.9691 19.9556 5.20541 20.9998 6.65831 21.6339L7.50831 19.6874ZM25.8541 20.6607V25.5H27.9791V20.6607H25.8541ZM30.1041 14.1667C30.1046 15.3386 29.7631 16.4853 29.1214 17.4659C28.4797 18.4466 27.5658 19.2186 26.4916 19.6874L27.3416 21.6339C28.7945 20.9998 30.0309 19.9556 30.899 18.6292C31.7672 17.3028 32.2294 15.7519 32.2291 14.1667H30.1041ZM22.3125 9.20834V9.91668H24.4375V9.20834H22.3125ZM9.56248 9.20834V9.91668H11.6875V9.20834H9.56248Z" fill="black"/>
<path d="M7.08331 25.5H26.9166" stroke="black" stroke-width="1.5" stroke-linecap="round" stroke-linejoin="round"/>
</svg>
